<svg xmlns="http://www.w3.org/2000/svg" enable-background="new 0 0 64 64" viewBox="0 0 64 64" id="game-winner-trophy"><path d="M39.69 33.94c-.46 0-.87-.33-.95-.8-.09-.53.26-1.03.78-1.13 2.38-.43 4.44-1.44 6.13-3.01 5.45-5.02 5.51-14.11 5.51-14.5 0-.07-.07-.14-.15-.14h-5.47c-.54 0-.97-.43-.97-.97 0-.54.43-.97.97-.97h5.47c1.14 0 2.08.93 2.09 2.07 0 1.07-.17 10.44-6.13 15.94-1.97 1.83-4.36 3-7.11 3.5C39.81 33.94 39.75 33.94 39.69 33.94zM25.33 33.92c-.06 0-.13-.01-.19-.02-2.69-.51-5.04-1.68-6.99-3.47-5.95-5.49-6.12-14.87-6.12-15.92 0-1.15.94-2.08 2.09-2.08h5.46c.54 0 .97.43.97.97 0 .54-.43.97-.97.97h-5.46c-.08 0-.15.07-.15.14 0 .38.06 9.48 5.5 14.5 1.67 1.54 3.69 2.55 6.02 2.99.46.08.81.48.81.96C26.3 33.49 25.87 33.92 25.33 33.92z"></path><path d="M32.3,37.45c-0.81,0-1.61-0.1-2.37-0.29c-11.31-2.9-11.44-25.9-11.44-26.88c0-0.26,0.1-0.5,0.28-0.69
			C18.96,9.4,19.2,9.3,19.46,9.3h26.2c0.54,0,0.97,0.43,0.97,0.97c0,0.97-0.13,23.74-11.41,26.83c-0.82,0.22-1.71,0.34-2.65,0.34
			C32.48,37.45,32.39,37.45,32.3,37.45z M20.45,11.24c0.15,4.34,1.29,21.82,9.96,24.04c0.67,0.17,1.38,0.25,2.13,0.23
			c0.79,0,1.51-0.09,2.16-0.27c8.67-2.38,9.81-19.68,9.96-23.99H20.45z"></path><path d="M30.17 46.84c-.54 0-.97-.43-.97-.97v-9.65c0-.54.43-.97.97-.97.54 0 .97.43.97.97v9.65C31.14 46.41 30.7 46.84 30.17 46.84zM34.96 46.84c-.54 0-.97-.43-.97-.97v-9.7c0-.54.43-.97.97-.97s.97.43.97.97v9.7C35.93 46.41 35.49 46.84 34.96 46.84z"></path><path d="M37.98,49.79c-0.54,0-0.97-0.43-0.97-0.97v-1.63c0-0.2-0.14-0.34-0.34-0.34h-8.21c-0.2,0-0.34,0.15-0.34,0.34v1.63
			c0,0.54-0.43,0.97-0.97,0.97c-0.54,0-0.97-0.43-0.97-0.97v-1.63c0-1.26,1.02-2.28,2.28-2.28h8.21c1.28,0,2.28,1,2.28,2.28v1.63
			C38.95,49.35,38.52,49.79,37.98,49.79z"></path><path d="M43.54,53.77c-0.54,0-0.97-0.43-0.97-0.97v-0.66c0-1.3-1.05-2.35-2.34-2.35H24.91c-1.3,0-2.35,1.06-2.35,2.35v0.66
			c0,0.54-0.43,0.97-0.97,0.97s-0.97-0.43-0.97-0.97v-0.66c0-2.37,1.93-4.29,4.29-4.29h15.31c2.36,0,4.28,1.93,4.28,4.29v0.66
			C44.51,53.33,44.07,53.77,43.54,53.77z"></path><path d="M45.63 64H19.5c-.54 0-.97-.43-.97-.97v-8.66c0-1.4 1.14-2.54 2.54-2.54h22.99c1.4 0 2.54 1.14 2.54 2.54v8.66C46.6 63.57 46.17 64 45.63 64zM20.47 62.06h24.19v-7.69c0-.33-.27-.6-.6-.6H21.07c-.33 0-.6.27-.6.6V62.06zM14.76 9.43c-.31 0-.61-.15-.79-.41l-1.43-2.04-2.3-.95C9.9 5.89 9.68 5.59 9.64 5.23c-.04-.35.12-.7.41-.9l2.04-1.43.95-2.3c.13-.33.44-.56.79-.6.35-.04.7.12.9.41l1.43 2.04 2.3.95c.33.13.56.44.6.79.04.35-.12.7-.41.9L16.6 6.52l-.95 2.3c-.13.33-.44.56-.79.6C14.83 9.42 14.79 9.43 14.76 9.43zM12.61 4.91l.93.38c.17.07.32.19.43.34l.57.82.38-.93c.07-.17.19-.32.34-.43l.82-.57-.93-.38c-.17-.07-.32-.19-.43-.34l-.57-.82-.38.93c-.07.17-.19.32-.34.43L12.61 4.91zM50.07 9.43c-.31 0-.61-.15-.79-.41l-1.43-2.04-2.3-.95c-.33-.13-.56-.44-.6-.79-.04-.35.12-.7.41-.9L47.4 2.9l.95-2.3c.13-.33.44-.56.79-.6.35-.04.7.12.9.41l1.43 2.04 2.3.95c.33.13.56.44.6.79.04.35-.12.7-.41.9l-2.04 1.43-.95 2.3c-.13.33-.44.56-.79.6C50.14 9.42 50.11 9.43 50.07 9.43zM47.92 4.91l.93.38c.17.07.32.19.43.34l.57.82.38-.93c.07-.17.19-.32.34-.43l.82-.57-.93-.38c-.17-.07-.32-.19-.43-.34l-.57-.82-.38.93c-.07.17-.19.32-.34.43L47.92 4.91zM14.76 43.71c-.31 0-.61-.15-.79-.41l-1.43-2.04-2.3-.95c-.33-.13-.56-.44-.6-.79-.04-.35.12-.7.41-.9l2.04-1.43.95-2.3c.13-.33.44-.56.79-.6.35-.04.7.12.9.41l1.43 2.04 2.3.95c.33.14.56.44.6.79.04.35-.12.7-.41.9l-2.04 1.43-.95 2.3c-.13.33-.44.56-.79.6C14.83 43.71 14.79 43.71 14.76 43.71zM12.61 39.19l.93.38c.17.07.32.19.43.34l.57.82.38-.93c.07-.17.19-.32.34-.43l.82-.57-.93-.38c-.17-.07-.32-.19-.43-.34l-.57-.82-.38.93c-.07.17-.19.32-.34.43L12.61 39.19zM48.81 44.93c-.31 0-.61-.15-.79-.41l-1.43-2.04-2.3-.95c-.33-.13-.56-.44-.6-.79-.04-.35.12-.7.41-.9l2.04-1.43.95-2.3c.13-.33.44-.56.79-.6.35-.04.7.12.9.41l1.43 2.04 2.3.95c.33.13.56.44.6.79.04.35-.12.7-.41.9l-2.04 1.43-.95 2.3c-.13.33-.44.56-.79.6C48.88 44.93 48.84 44.93 48.81 44.93zM46.66 40.41l.93.38c.17.07.32.19.43.34l.57.82.38-.93c.07-.17.19-.32.34-.43l.82-.57-.93-.38c-.17-.07-.32-.19-.43-.34l-.57-.82-.38.93c-.07.17-.19.32-.34.43L46.66 40.41z"></path></svg>